<?xml version="1.0" encoding="utf-8"?>
<!-- Generator: Adobe Illustrator 16.2.1, SVG Export Plug-In . SVG Version: 6.00 Build 0)  -->
<!DOCTYPE svg PUBLIC "-//W3C//DTD SVG 1.1//EN" "http://www.w3.org/Graphics/SVG/1.1/DTD/svg11.dtd">
<svg version="1.1" id="Layer_1" xmlns="http://www.w3.org/2000/svg" xmlns:xlink="http://www.w3.org/1999/xlink" x="0px" y="0px"
	 width="181.417px" height="45.354px" viewBox="-20.708 -6.677 181.417 45.354"
	 enable-background="new -20.708 -6.677 181.417 45.354" xml:space="preserve">
<g>
	<path fill="#FFFFFF" d="M-20.708,19.646V-4.391h6.348l4.994,8.811c1.426,2.527,2.853,5.525,3.922,8.24h0.107
		C-5.693,9.483-5.8,6.239-5.8,2.637v-7.028h4.994v24.036h-5.707l-5.135-9.273c-1.427-2.568-2.998-5.669-4.174-8.489l-0.106,0.038
		c0.142,3.177,0.215,6.562,0.215,10.484v7.24H-20.708z"/>
	<path fill="#FFFFFF" d="M8.53-2.642c0,1.499-1.141,2.707-2.923,2.707c-1.712,0-2.854-1.208-2.819-2.707
		C2.753-4.215,3.895-5.388,5.642-5.388C7.389-5.388,8.496-4.215,8.53-2.642z M2.932,19.646V2.204h5.421v17.441H2.932z"/>
	<path fill="#FFFFFF" d="M28.462,2.204c-0.068,1.109-0.143,2.573-0.143,5.176v9.74c0,3.346-0.678,6.099-2.639,7.844
		c-1.924,1.64-4.527,2.132-7.094,2.132c-2.283,0-4.71-0.462-6.278-1.355l1.069-4.102c1.107,0.645,3.033,1.326,5.065,1.326
		c2.568,0,4.53-1.387,4.53-4.607v-1.135h-0.075c-1.031,1.462-2.708,2.282-4.705,2.282c-4.317,0-7.382-3.492-7.382-8.523
		c0-5.6,3.637-9.165,7.917-9.165c2.389,0,3.887,1.029,4.78,2.461h0.069l0.179-2.074H28.462z M22.897,9.303
		c0-0.358-0.032-0.716-0.103-0.999c-0.396-1.424-1.427-2.386-2.925-2.386c-1.962,0-3.566,1.782-3.566,4.952
		c0,2.609,1.284,4.636,3.566,4.636c1.388,0,2.497-0.924,2.851-2.206c0.146-0.394,0.177-0.971,0.177-1.432V9.303z"/>
	<path fill="#FFFFFF" d="M31.773-5.677h5.421v9.955h0.075c0.566-0.754,1.283-1.319,2.141-1.785c0.783-0.43,1.818-0.676,2.816-0.676
		c3.459,0,6.096,2.386,6.096,7.628v10.2h-5.419V10.05c0-2.283-0.787-3.848-2.817-3.848c-1.43,0-2.317,0.924-2.712,1.886
		c-0.142,0.357-0.179,0.82-0.179,1.215v10.342h-5.421V-5.677z"/>
	<path fill="#FFFFFF" d="M57.628-2.784v4.988h3.884v3.998h-3.884v6.307c0,2.104,0.5,3.074,2.14,3.074
		c0.679,0,1.208-0.076,1.604-0.15l0.038,4.101c-0.717,0.289-1.999,0.465-3.535,0.465c-1.745,0-3.207-0.598-4.065-1.491
		c-0.999-1.03-1.499-2.716-1.499-5.176V6.202h-2.319V2.204h2.319v-3.781L57.628-2.784z"/>
	<path fill="#FFFFFF" d="M74.914,19.646L68.606-4.391h1.716l3.487,13.553c0.822,3.1,1.537,5.986,2.002,8.241h0.104
		c0.398-2.255,1.252-5.103,2.178-8.241l3.963-13.553h1.641l3.568,13.445c0.746,2.918,1.566,5.916,1.924,8.349h0.104
		c0.537-2.612,1.283-5.206,2.178-8.279L95.42-4.391h1.752l-7.205,24.036h-1.641l-3.635-13.84c-0.934-3.526-1.5-5.919-1.857-8.165
		h-0.072c-0.391,2.246-1.031,4.602-2.135,8.133l-4.072,13.872H74.914z"/>
	<path fill="#FFFFFF" d="M113,10.906c0,6.42-4.389,9.137-8.205,9.137c-4.414,0-7.846-3.461-7.846-8.816
		c0-5.883,3.855-9.088,8.098-9.088C109.791,2.138,113,5.665,113,10.906z M98.666,11.124c0,4.279,2.744,7.485,6.238,7.485
		c3.572,0,6.387-3.206,6.387-7.592c0-3.137-1.783-7.493-6.271-7.493C100.664,3.524,98.666,7.446,98.666,11.124z"/>
	<path fill="#FFFFFF" d="M116.455,7.664c0-1.714-0.068-3.498-0.137-5.139h1.566l0.072,3.46h0.07c0.752-2.14,2.529-3.847,4.883-3.847
		c0.215,0,0.461,0.033,0.684,0.066v1.641c-0.25-0.066-0.506-0.066-0.822-0.066c-2.352,0-4.033,2.027-4.498,4.778
		c-0.07,0.498-0.135,1.067-0.135,1.64v9.449h-1.684V7.664z"/>
	<path fill="#FFFFFF" d="M128.047,10.765h0.068c0.43-0.537,1.145-1.32,1.68-1.887l6.027-6.354h2.066l-6.914,7.099l7.875,10.021
		h-2.068l-6.986-8.984l-1.748,1.847v7.137h-1.68V-5.677h1.68V10.765z"/>
	<path fill="#FFFFFF" d="M139.844,17.403c0.93,0.565,2.32,1.178,3.854,1.178c2.709,0,3.994-1.461,3.994-3.253
		c0-1.894-1.137-2.89-3.596-3.887c-2.818-1.069-4.355-2.6-4.355-4.672c0-2.46,1.922-4.631,5.279-4.631
		c1.566,0,2.887,0.462,3.777,1.066l-0.676,1.395c-0.568-0.433-1.68-1.037-3.385-1.037c-2.178,0-3.32,1.392-3.32,2.96
		c0,1.783,1.215,2.565,3.529,3.528c2.785,1.074,4.426,2.458,4.426,5.071c0,2.923-2.285,4.922-5.781,4.922
		c-1.672,0-3.209-0.51-4.352-1.218L139.844,17.403z"/>
</g>
</svg>
