<?xml version="1.0" encoding="utf-8"?>
<!-- Generator: Adobe Illustrator 16.2.1, SVG Export Plug-In . SVG Version: 6.00 Build 0)  -->
<!DOCTYPE svg PUBLIC "-//W3C//DTD SVG 1.1//EN" "http://www.w3.org/Graphics/SVG/1.1/DTD/svg11.dtd">
<svg version="1.1" id="Layer_1" xmlns="http://www.w3.org/2000/svg" xmlns:xlink="http://www.w3.org/1999/xlink" x="0px" y="0px"
	 width="260.788px" height="45.354px" viewBox="-39.685 0 260.788 45.354" enable-background="new -39.685 0 260.788 45.354"
	 xml:space="preserve">
<g>
	<g>
		<path fill="#A7DBF6" d="M16.377,9.748c-0.487,0.004-2.77,0.745-4.498,1.086c-1.73,0.341-2.178,0.422-4.568,0.61
			c-2.393,0.188-5.168-0.224-6.15-0.296c-1.301-0.097-2.512,0.082-3.528,0.83c-1.003,0.735-1.646,2.721-1.646,2.721
			s-0.023,0.091-0.065,0.243c-0.78-1.245-2.023-2.256-3.368-2.805V7.275c0.235-0.179,0.381-0.46,0.381-0.767V4.895
			c0-0.421-0.272-0.79-0.675-0.917c-0.102-0.033-0.196-0.05-0.292-0.05h-2.355c-0.094,0-0.188,0.016-0.29,0.049
			c-0.404,0.128-0.678,0.497-0.678,0.918v1.613c0,0.307,0.147,0.588,0.383,0.767v4.863c-1.345,0.549-2.589,1.559-3.37,2.804
			c-0.041-0.152-0.064-0.242-0.064-0.242s-0.645-1.985-1.646-2.721c-1.017-0.748-2.228-0.927-3.527-0.83
			c-0.983,0.072-3.759,0.484-6.152,0.296c-2.39-0.188-2.838-0.27-4.567-0.61c-1.729-0.341-4.011-1.082-4.498-1.086
			c-0.485-0.003-0.516,0.104-0.526,0.465c-0.013,0.359,0.324,0.994,0.729,1.638c0.405,0.645,1.288,1.262,1.288,1.262
			s0.041,1.022,0.494,1.715c0.454,0.693,1.433,1.215,1.433,1.215s0.1,0.929,0.895,1.746c1.365,1.398,3.652,1.071,3.652,1.071
			s0.295,0.82,1.173,1.192C-24.071,20.727-23,20.195-23,20.195s-0.151,0.826,0.454,2.085c0.509,1.059,2.668,3.011,4.572,3.294
			c1.379,0.205,2.358,0.029,2.797-0.08v10.153c0,1.176,0.956,2.132,2.132,2.132h7.666c1.176,0,2.131-0.956,2.131-2.132V25.492
			c0.438,0.11,1.419,0.286,2.798,0.081c1.904-0.283,4.062-2.235,4.572-3.294c0.605-1.259,0.456-2.085,0.456-2.085
			s1.069,0.532,2.662-0.143c0.877-0.372,1.172-1.192,1.172-1.192s2.287,0.327,3.651-1.071c0.797-0.817,0.896-1.746,0.896-1.746
			s0.979-0.521,1.434-1.215c0.452-0.692,0.494-1.715,0.494-1.715s0.882-0.617,1.287-1.262c0.404-0.644,0.741-1.278,0.73-1.638
			C16.892,9.853,16.863,9.745,16.377,9.748z"/>
		<path fill="#FFFFFF" d="M-6.348,16.657h-4.472v-3.439c0,0-0.003-0.573-0.003-0.61c-0.004-0.343-0.539-0.214-0.784-0.045
			c-0.271,0.191-0.941,0.986-0.941,1.835c0,0.044,0,1.118,0,1.118v1.212c-0.689,0.208-1.194,0.856-1.194,1.623v11.921
			c0,0.765,0.502,1.414,1.191,1.623v1.043c0,0-0.004,0.323,0.003,0.631c0.009,0.315,0.167,0.55,0.643,0.55
			c0.813,0,1.079,0.009,1.079-0.368c0-0.033,0.004-0.428,0.004-0.428v-1.356h4.475c0.922,0,1.668-0.761,1.668-1.694V18.351
			C-4.68,17.417-5.426,16.657-6.348,16.657z M-5.526,30.272c0,0.468-0.367,0.848-0.822,0.848h-4.474h-1.252
			c-0.179,0-0.344-0.06-0.478-0.158c-0.209-0.154-0.346-0.404-0.346-0.689V18.351c0-0.285,0.138-0.537,0.349-0.691
			c0.134-0.097,0.298-0.156,0.475-0.156h1.253h4.473c0.455,0,0.822,0.381,0.822,0.848V30.272z"/>
		<path fill="#FFFFFF" d="M16.377,7.816c-0.487,0.003-2.77,0.744-4.498,1.085c-1.73,0.342-2.178,0.421-4.568,0.61
			c-2.393,0.188-5.168-0.223-6.15-0.297c-1.301-0.095-2.512,0.083-3.528,0.832c-1.003,0.734-1.646,2.719-1.646,2.719
			s-0.003,0.012-0.007,0.03c-0.65-1.15-1.676-2.076-2.945-2.595V5.337c0.237-0.179,0.382-0.459,0.382-0.768V2.957
			c0-0.422-0.271-0.79-0.674-0.919c-0.101-0.031-0.196-0.047-0.293-0.047h-3.32c-0.094,0-0.188,0.015-0.291,0.047
			c-0.404,0.129-0.676,0.497-0.676,0.919V4.57c0,0.309,0.146,0.589,0.382,0.768V10.2c-1.27,0.517-2.296,1.443-2.945,2.593
			c-0.005-0.017-0.007-0.028-0.007-0.028s-0.645-1.984-1.646-2.719c-1.017-0.749-2.228-0.927-3.527-0.832
			c-0.983,0.074-3.759,0.485-6.152,0.297c-2.39-0.189-2.838-0.269-4.567-0.61c-1.729-0.341-4.011-1.082-4.498-1.085
			c-0.485-0.003-0.516,0.103-0.526,0.464c-0.013,0.359,0.324,0.993,0.729,1.637c0.405,0.646,1.288,1.263,1.288,1.263
			s0.041,1.022,0.494,1.716c0.454,0.693,1.433,1.214,1.433,1.214s0.1,0.93,0.895,1.747c1.365,1.398,3.652,1.071,3.652,1.071
			s0.295,0.819,1.173,1.192C-24.071,18.793-23,18.262-23,18.262s-0.151,0.826,0.454,2.085c0.509,1.059,2.668,3.01,4.572,3.293
			c1.379,0.205,2.358,0.032,2.797-0.08v10.15c0,1.175,0.956,2.13,2.132,2.13h7.666c1.176,0,2.131-0.955,2.131-2.13V23.559
			c0.438,0.113,1.419,0.286,2.798,0.081c1.904-0.283,4.062-2.234,4.572-3.293c0.605-1.259,0.456-2.085,0.456-2.085
			s1.069,0.531,2.662-0.143c0.877-0.373,1.172-1.192,1.172-1.192s2.287,0.327,3.651-1.071c0.797-0.817,0.896-1.747,0.896-1.747
			s0.979-0.521,1.434-1.214c0.452-0.693,0.494-1.716,0.494-1.716s0.882-0.616,1.287-1.263c0.404-0.644,0.741-1.277,0.73-1.637
			C16.892,7.918,16.863,7.813,16.377,7.816z M-15.889,22.77c-1.822,0.189-3.526-0.373-5.229-2.114
			c-0.684-0.698-1.211-2.613-0.635-2.932c0.575-0.317,0.812-1.066,0.267-0.768c-0.438,0.241-0.438,0.241-1.15,0.539
			s-1.547,0.638-2.588,0.005c-1.212-0.736-0.321-0.601,0.52-0.784c0.806-0.179,1.95-0.574,2.662-1.065
			c0.714-0.492,0.103-0.282-0.866,0.023c-0.991,0.314-2.395,0.396-4,0.435c-1.606,0.04-2.565-0.52-3.155-0.941
			c-0.591-0.422-0.416-0.674,0.168-0.573c0.581,0.101,1.973,0.293,3.511,0.245c1.535-0.051,3.35-0.74,3.847-0.903
			c0.497-0.162,0.565-0.445,0.118-0.33c-0.448,0.114-2.792,0.363-5.371,0.397c-2.579,0.033-3.672-0.936-4.186-1.415
			c-0.512-0.479-0.792-1.035-0.374-0.849c0.417,0.188,3.019,0.923,5.841,1.035c2.821,0.113,4.292-0.432,4.712-0.635
			c0.42-0.202,0.205-0.357-0.485-0.196c-0.692,0.161-4.273,0.395-7.023-0.099c-2.374-0.426-3.689-1.285-4.491-2.156
			c-0.327-0.354-0.638-0.763-0.316-0.866c0.321-0.106,2.224,0.663,3.546,0.846c1.322,0.184,2.303,0.509,4.908,0.66
			c2.607,0.151,4.389-0.237,6.102-0.345c1.712-0.105,2.048-0.039,3.066,0.653c0.642,0.436,1.205,1.916,1.605,3.258
			c-0.187,0.582-0.289,1.195-0.289,1.827v7.017C-15.37,22.732-15.602,22.74-15.889,22.77z M-5.378,34.995h-7.666
			c-0.709,0-1.285-0.577-1.285-1.285V15.722c0-2.17,1.38-4.11,3.435-4.832l0.284-0.099V4.778l-0.295-0.094
			c-0.042-0.014-0.088-0.055-0.088-0.114V2.957c0-0.058,0.046-0.1,0.087-0.112c0.024-0.007,0.034-0.008,0.035-0.008h3.32
			c0.003,0,0.013,0.001,0.035,0.008C-7.474,2.858-7.43,2.9-7.43,2.957V4.57c0,0.06-0.044,0.101-0.087,0.114l-0.295,0.094v6.014
			l0.284,0.099c2.055,0.722,3.435,2.663,3.435,4.832V33.71C-4.093,34.418-4.668,34.995-5.378,34.995z M15.375,9.689
			c-0.802,0.871-2.117,1.73-4.491,2.156c-2.75,0.493-6.331,0.26-7.023,0.099c-0.69-0.161-0.905-0.006-0.486,0.196
			c0.421,0.203,1.892,0.748,4.713,0.635c2.821-0.112,5.424-0.847,5.841-1.035c0.417-0.187,0.138,0.37-0.375,0.849
			c-0.513,0.479-1.605,1.448-4.185,1.415c-2.578-0.034-4.923-0.283-5.372-0.397c-0.447-0.115-0.378,0.168,0.119,0.33
			c0.498,0.163,2.311,0.853,3.847,0.903c1.538,0.048,2.929-0.145,3.511-0.245c0.584-0.101,0.76,0.151,0.169,0.573
			s-1.551,0.981-3.155,0.941c-1.605-0.039-3.009-0.12-4.001-0.435c-0.969-0.306-1.58-0.516-0.866-0.023
			c0.712,0.491,1.856,0.887,2.662,1.065c0.841,0.184,1.731,0.048,0.52,0.784c-1.04,0.633-1.877,0.293-2.588-0.005
			c-0.712-0.298-0.712-0.298-1.15-0.539c-0.546-0.299-0.309,0.45,0.266,0.768c0.577,0.318,0.049,2.233-0.635,2.932
			c-1.701,1.741-3.404,2.304-5.228,2.114c-0.286-0.029-0.519-0.037-0.714-0.028v-7.02c0-0.631-0.103-1.244-0.289-1.824
			c0.401-1.344,0.964-2.825,1.606-3.261c1.02-0.692,1.354-0.759,3.065-0.653c1.714,0.107,3.496,0.496,6.103,0.345
			c2.605-0.151,3.586-0.477,4.907-0.66c1.322-0.183,3.226-0.952,3.546-0.846C16.013,8.926,15.703,9.335,15.375,9.689z"/>
		
			<ellipse transform="matrix(0.9996 -0.0276 0.0276 0.9996 -1.1178 -0.2386)" fill="#FFFFFF" cx="-9.211" cy="40.409" rx="4.994" ry="1.259"/>
	</g>
	<g>
		<path fill="#FFFFFF" d="M24.806,31.883V4.854h7.138l5.615,9.911c1.604,2.841,3.206,6.209,4.407,9.259h0.121
			c-0.399-3.569-0.521-7.213-0.521-11.269V4.854h5.614v27.021h-6.415l-5.773-10.423c-1.603-2.888-3.371-6.375-4.692-9.546
			l-0.117,0.046c0.157,3.569,0.242,7.377,0.242,11.789v8.134h-5.618V31.883z"/>
		<path fill="#FFFFFF" d="M57.678,6.822c0,1.688-1.285,3.041-3.283,3.041c-1.929,0-3.212-1.353-3.173-3.041
			c-0.039-1.768,1.244-3.087,3.208-3.087C56.393,3.735,57.639,5.054,57.678,6.822z M51.383,31.883v-19.61h6.098v19.603h-6.098
			V31.883z"/>
		<path fill="#FFFFFF" d="M80.089,12.273c-0.075,1.246-0.165,2.893-0.165,5.816v10.948c0,3.769-0.759,6.859-2.969,8.821
			c-2.161,1.842-5.087,2.4-7.973,2.4c-2.566,0-5.293-0.521-7.058-1.522l1.201-4.61c1.244,0.725,3.409,1.486,5.695,1.486
			c2.889,0,5.092-1.559,5.092-5.179v-1.28h-0.083c-1.162,1.646-3.044,2.567-5.291,2.567c-4.851,0-8.297-3.921-8.297-9.578
			c0-6.3,4.089-10.309,8.902-10.309c2.682,0,4.367,1.16,5.369,2.766h0.078l0.2-2.327H80.089z M73.831,20.252
			c0-0.402-0.038-0.803-0.116-1.123c-0.448-1.599-1.603-2.685-3.288-2.685c-2.204,0-4.01,2.009-4.01,5.572
			c0,2.928,1.443,5.211,4.01,5.211c1.561,0,2.81-1.041,3.206-2.483c0.161-0.438,0.198-1.087,0.198-1.606V20.252z"/>
		<path fill="#FFFFFF" d="M83.806,3.408h6.098V14.6h0.084c0.639-0.848,1.444-1.479,2.41-2.001c0.878-0.491,2.045-0.765,3.167-0.765
			c3.888,0,6.853,2.685,6.853,8.573v11.468h-6.097V21.094c0-2.566-0.882-4.329-3.168-4.329c-1.604,0-2.599,1.041-3.047,2.118
			c-0.16,0.401-0.199,0.924-0.199,1.369v11.623h-6.101V3.408L83.806,3.408z"/>
		<path fill="#FFFFFF" d="M112.879,6.666v5.606h4.367v4.492h-4.367v7.095c0,2.365,0.559,3.451,2.402,3.451
			c0.769,0,1.363-0.082,1.8-0.162l0.047,4.61c-0.804,0.325-2.246,0.522-3.971,0.522c-1.965,0-3.609-0.68-4.576-1.682
			c-1.124-1.152-1.682-3.049-1.682-5.815v-8.02h-2.61v-4.492h2.61V8.017L112.879,6.666z"/>
		<path fill="#FFFFFF" d="M132.315,31.883l-7.096-27.029h1.929l3.923,15.244c0.925,3.478,1.727,6.729,2.249,9.258h0.12
			c0.444-2.529,1.403-5.735,2.446-9.258l4.459-15.244h1.844l4.006,15.121c0.841,3.282,1.763,6.651,2.165,9.381h0.118
			c0.602-2.93,1.443-5.852,2.446-9.305l4.442-15.197h1.968l-8.101,27.021h-1.845l-4.087-15.558
			c-1.047-3.963-1.683-6.654-2.085-9.178h-0.079c-0.442,2.523-1.163,5.17-2.404,9.146l-4.575,15.59h-1.844V31.883z"/>
		<path fill="#FFFFFF" d="M175.131,22.052c0,7.222-4.934,10.273-9.224,10.273c-4.968,0-8.819-3.892-8.819-9.909
			c0-6.618,4.332-10.217,9.103-10.217C171.524,12.198,175.131,16.164,175.131,22.052z M159.016,22.299
			c0,4.81,3.087,8.416,7.014,8.416c4.014,0,7.179-3.606,7.179-8.538c0-3.522-2.006-8.425-7.05-8.425
			C161.261,13.752,159.016,18.16,159.016,22.299z"/>
		<path fill="#FFFFFF" d="M179.016,18.409c0-1.925-0.079-3.935-0.157-5.781h1.764l0.079,3.89h0.079
			c0.843-2.4,2.846-4.319,5.494-4.319c0.238,0,0.518,0.032,0.766,0.074v1.845c-0.282-0.072-0.566-0.072-0.925-0.072
			c-2.646,0-4.532,2.272-5.056,5.366c-0.081,0.563-0.152,1.203-0.152,1.846v10.626h-1.892V18.409L179.016,18.409z"/>
		<path fill="#FFFFFF" d="M192.048,21.896h0.078c0.482-0.601,1.284-1.488,1.887-2.119l6.774-7.149h2.323l-7.771,7.982l8.853,11.266
			h-2.326l-7.854-10.098l-1.965,2.08v8.018h-1.887V3.408h1.887V21.896L192.048,21.896z"/>
		<path fill="#FFFFFF" d="M205.31,29.356c1.047,0.64,2.609,1.325,4.334,1.325c3.046,0,4.489-1.644,4.489-3.652
			c0-2.136-1.278-3.248-4.042-4.377c-3.169-1.199-4.896-2.918-4.896-5.246c0-2.765,2.161-5.207,5.934-5.207
			c1.764,0,3.249,0.521,4.249,1.199l-0.761,1.568c-0.64-0.491-1.89-1.169-3.806-1.169c-2.45,0-3.731,1.569-3.731,3.333
			c0,2,1.364,2.877,3.968,3.964c3.129,1.205,4.974,2.766,4.974,5.696c0,3.287-2.569,5.535-6.499,5.535
			c-1.881,0-3.607-0.568-4.893-1.364L205.31,29.356z"/>
	</g>
</g>
</svg>
