<?xml version="1.0" encoding="utf-8"?>
<!-- Generator: Adobe Illustrator 16.2.1, SVG Export Plug-In . SVG Version: 6.00 Build 0)  -->
<!DOCTYPE svg PUBLIC "-//W3C//DTD SVG 1.1//EN" "http://www.w3.org/Graphics/SVG/1.1/DTD/svg11.dtd">
<svg version="1.1" id="Layer_1" xmlns="http://www.w3.org/2000/svg" xmlns:xlink="http://www.w3.org/1999/xlink" x="0px" y="0px"
	 width="260.789px" height="45.354px" viewBox="0 0 260.789 45.354" enable-background="new 0 0 260.789 45.354"
	 xml:space="preserve">
<g>
	<g>
		<path fill="#A7DBF6" d="M55.872,10.364c-0.487,0.005-2.77,0.745-4.498,1.087c-1.73,0.341-2.178,0.422-4.568,0.609
			c-2.393,0.188-5.168-0.224-6.15-0.296c-1.301-0.097-2.512,0.082-3.528,0.83c-1.003,0.735-1.646,2.721-1.646,2.721
			s-0.023,0.091-0.065,0.243c-0.78-1.245-2.023-2.256-3.368-2.805V7.89c0.235-0.179,0.381-0.46,0.381-0.767V5.51
			c0-0.421-0.272-0.79-0.675-0.917c-0.102-0.033-0.196-0.05-0.292-0.05h-2.355c-0.094,0-0.188,0.016-0.29,0.049
			C28.414,4.72,28.14,5.089,28.14,5.51v1.613c0,0.307,0.147,0.588,0.383,0.767v4.863c-1.345,0.549-2.589,1.559-3.37,2.804
			c-0.041-0.152-0.064-0.242-0.064-0.242s-0.645-1.984-1.646-2.721c-1.017-0.748-2.228-0.927-3.527-0.83
			c-0.983,0.072-3.759,0.484-6.152,0.296c-2.39-0.188-2.838-0.27-4.567-0.609c-1.729-0.342-4.011-1.082-4.498-1.087
			c-0.485-0.003-0.516,0.104-0.526,0.466c-0.013,0.358,0.324,0.993,0.729,1.638c0.405,0.645,1.288,1.262,1.288,1.262
			s0.041,1.022,0.494,1.715c0.454,0.693,1.433,1.216,1.433,1.216s0.1,0.929,0.895,1.745c1.365,1.398,3.652,1.071,3.652,1.071
			s0.295,0.82,1.173,1.192c1.592,0.675,2.663,0.143,2.663,0.143s-0.151,0.826,0.454,2.085c0.509,1.06,2.668,3.011,4.572,3.294
			c1.379,0.205,2.358,0.029,2.797-0.08v10.153c0,1.176,0.956,2.132,2.132,2.132h7.666c1.176,0,2.131-0.956,2.131-2.132V26.108
			c0.438,0.11,1.419,0.286,2.798,0.081c1.904-0.283,4.062-2.234,4.572-3.294c0.605-1.259,0.456-2.085,0.456-2.085
			s1.069,0.532,2.662-0.143c0.877-0.372,1.172-1.192,1.172-1.192s2.287,0.327,3.651-1.071c0.797-0.816,0.896-1.745,0.896-1.745
			s0.979-0.521,1.434-1.216c0.452-0.691,0.494-1.715,0.494-1.715s0.882-0.617,1.287-1.262c0.404-0.645,0.741-1.278,0.73-1.638
			C56.387,10.468,56.357,10.361,55.872,10.364z"/>
		<path fill="#026FD9" d="M33.146,17.273h-4.472v-3.438c0,0-0.003-0.573-0.003-0.61c-0.004-0.343-0.539-0.214-0.784-0.045
			c-0.271,0.191-0.941,0.986-0.941,1.835c0,0.044,0,1.118,0,1.118v1.212c-0.689,0.208-1.194,0.856-1.194,1.623v11.921
			c0,0.765,0.502,1.414,1.191,1.623v1.043c0,0-0.004,0.323,0.003,0.631c0.009,0.315,0.167,0.55,0.643,0.55
			c0.813,0,1.079,0.01,1.079-0.367c0-0.033,0.004-0.429,0.004-0.429v-1.355h4.475c0.922,0,1.668-0.762,1.668-1.694V18.966
			C34.814,18.031,34.068,17.273,33.146,17.273z M33.969,30.887c0,0.468-0.367,0.848-0.822,0.848h-4.474h-1.252
			c-0.179,0-0.344-0.06-0.478-0.157c-0.209-0.154-0.346-0.404-0.346-0.689V18.966c0-0.285,0.138-0.537,0.349-0.691
			c0.134-0.097,0.298-0.155,0.475-0.155h1.253h4.473c0.455,0,0.822,0.381,0.822,0.848V30.887z"/>
		<path fill="#026FD9" d="M55.872,8.431c-0.487,0.003-2.77,0.744-4.498,1.085c-1.73,0.342-2.178,0.421-4.568,0.61
			c-2.393,0.188-5.168-0.224-6.15-0.297c-1.301-0.096-2.512,0.083-3.528,0.832c-1.003,0.733-1.646,2.719-1.646,2.719
			s-0.003,0.012-0.007,0.03c-0.65-1.15-1.676-2.076-2.945-2.596V5.952c0.237-0.18,0.382-0.459,0.382-0.769V3.573
			c0-0.422-0.271-0.789-0.674-0.919c-0.101-0.03-0.196-0.047-0.293-0.047h-3.32c-0.094,0-0.188,0.016-0.291,0.047
			c-0.404,0.13-0.676,0.497-0.676,0.919v1.612c0,0.31,0.146,0.589,0.382,0.769v4.862c-1.27,0.518-2.296,1.443-2.945,2.594
			c-0.005-0.018-0.007-0.028-0.007-0.028s-0.645-1.984-1.646-2.719c-1.017-0.749-2.228-0.928-3.527-0.832
			c-0.983,0.073-3.759,0.484-6.152,0.297c-2.39-0.189-2.838-0.27-4.567-0.61C7.464,9.175,5.182,8.434,4.694,8.431
			C4.209,8.428,4.179,8.533,4.168,8.895c-0.013,0.359,0.324,0.993,0.729,1.637c0.405,0.646,1.288,1.264,1.288,1.264
			s0.041,1.021,0.494,1.716c0.454,0.693,1.433,1.214,1.433,1.214s0.1,0.93,0.895,1.747c1.365,1.398,3.652,1.071,3.652,1.071
			s0.295,0.818,1.173,1.191c1.592,0.675,2.663,0.144,2.663,0.144s-0.151,0.826,0.454,2.085c0.509,1.059,2.668,3.01,4.572,3.293
			c1.379,0.205,2.358,0.032,2.797-0.08v10.15c0,1.175,0.956,2.13,2.132,2.13h7.666c1.176,0,2.131-0.955,2.131-2.13V24.174
			c0.438,0.113,1.419,0.286,2.798,0.081c1.904-0.283,4.062-2.234,4.572-3.293c0.605-1.259,0.456-2.085,0.456-2.085
			s1.069,0.531,2.662-0.144c0.877-0.373,1.172-1.191,1.172-1.191s2.287,0.327,3.651-1.071c0.797-0.817,0.896-1.747,0.896-1.747
			s0.979-0.521,1.434-1.214c0.452-0.693,0.494-1.716,0.494-1.716s0.882-0.616,1.287-1.264c0.404-0.644,0.741-1.276,0.73-1.637
			C56.387,8.533,56.357,8.428,55.872,8.431z M23.605,23.385c-1.822,0.188-3.526-0.373-5.229-2.114
			c-0.684-0.698-1.211-2.612-0.635-2.932c0.575-0.317,0.812-1.066,0.267-0.769c-0.438,0.241-0.438,0.241-1.15,0.539
			c-0.712,0.299-1.547,0.639-2.588,0.005c-1.212-0.735-0.321-0.601,0.52-0.783c0.806-0.18,1.95-0.574,2.662-1.065
			c0.714-0.492,0.103-0.282-0.866,0.023c-0.991,0.313-2.395,0.396-4,0.435c-1.606,0.04-2.565-0.52-3.155-0.94
			c-0.591-0.423-0.416-0.675,0.168-0.573c0.581,0.101,1.973,0.293,3.511,0.245c1.535-0.052,3.35-0.74,3.847-0.903
			c0.497-0.162,0.565-0.445,0.118-0.33c-0.448,0.114-2.792,0.363-5.371,0.397c-2.579,0.032-3.672-0.937-4.186-1.415
			c-0.512-0.479-0.792-1.035-0.374-0.85c0.417,0.188,3.019,0.923,5.841,1.035c2.821,0.113,4.292-0.432,4.712-0.635
			c0.42-0.202,0.205-0.357-0.485-0.196c-0.692,0.161-4.273,0.396-7.023-0.099c-2.374-0.426-3.689-1.285-4.491-2.156
			C5.369,9.95,5.059,9.541,5.38,9.438c0.321-0.105,2.224,0.663,3.546,0.847c1.322,0.184,2.303,0.509,4.908,0.659
			c2.607,0.151,4.389-0.236,6.102-0.345c1.712-0.104,2.048-0.039,3.066,0.653c0.642,0.436,1.205,1.916,1.605,3.258
			c-0.187,0.582-0.289,1.195-0.289,1.827v7.017C24.125,23.347,23.893,23.356,23.605,23.385z M34.116,35.611H26.45
			c-0.709,0-1.285-0.576-1.285-1.284V16.337c0-2.17,1.38-4.11,3.435-4.832l0.284-0.1V5.393l-0.295-0.094
			c-0.042-0.014-0.088-0.055-0.088-0.114V3.573c0-0.058,0.046-0.1,0.087-0.111c0.024-0.007,0.034-0.008,0.035-0.008h3.32
			c0.003,0,0.013,0.001,0.035,0.008c0.042,0.013,0.086,0.055,0.086,0.111v1.612c0,0.061-0.044,0.102-0.087,0.114l-0.295,0.094v6.014
			l0.284,0.1c2.055,0.722,3.435,2.663,3.435,4.832v17.988C35.401,35.033,34.826,35.611,34.116,35.611z M54.87,10.304
			c-0.802,0.871-2.117,1.73-4.491,2.156c-2.75,0.493-6.331,0.26-7.023,0.099c-0.69-0.161-0.905-0.006-0.486,0.196
			c0.421,0.203,1.892,0.748,4.713,0.635c2.821-0.112,5.424-0.847,5.841-1.035c0.417-0.187,0.138,0.37-0.375,0.85
			c-0.513,0.479-1.605,1.447-4.185,1.415c-2.578-0.034-4.923-0.283-5.372-0.397c-0.447-0.115-0.378,0.168,0.119,0.33
			c0.498,0.163,2.311,0.853,3.847,0.903c1.538,0.048,2.929-0.146,3.511-0.245c0.584-0.102,0.76,0.15,0.169,0.573
			c-0.591,0.422-1.551,0.98-3.155,0.94c-1.605-0.039-3.009-0.12-4.001-0.435c-0.969-0.307-1.58-0.517-0.866-0.023
			c0.712,0.491,1.856,0.887,2.662,1.065c0.841,0.184,1.731,0.048,0.52,0.783c-1.04,0.634-1.877,0.294-2.588-0.005
			c-0.712-0.298-0.712-0.298-1.15-0.539c-0.546-0.299-0.309,0.45,0.266,0.769c0.577,0.317,0.049,2.232-0.635,2.932
			c-1.701,1.741-3.404,2.305-5.228,2.114c-0.286-0.029-0.519-0.037-0.714-0.028v-7.02c0-0.631-0.103-1.244-0.289-1.824
			c0.401-1.344,0.964-2.825,1.606-3.261c1.02-0.692,1.354-0.759,3.065-0.653c1.714,0.107,3.496,0.496,6.103,0.345
			c2.605-0.15,3.586-0.477,4.907-0.659c1.322-0.184,3.226-0.952,3.546-0.847C55.508,9.541,55.197,9.95,54.87,10.304z"/>
		
			<ellipse transform="matrix(-0.0277 -0.9996 0.9996 -0.0277 -9.8831 72.4337)" fill="#026FD9" cx="30.284" cy="41.023" rx="1.259" ry="4.994"/>
	</g>
	<g>
		<path fill="#026FD9" d="M64.301,32.498V5.469h7.138l5.615,9.911c1.604,2.841,3.206,6.209,4.407,9.259h0.121
			c-0.399-3.569-0.521-7.213-0.521-11.269V5.469h5.614V32.49H80.26l-5.773-10.423c-1.603-2.888-3.371-6.375-4.692-9.546
			l-0.117,0.046c0.157,3.569,0.242,7.377,0.242,11.789v8.134h-5.618v0.009H64.301z"/>
		<path fill="#026FD9" d="M97.173,7.437c0,1.688-1.285,3.041-3.283,3.041c-1.929,0-3.212-1.353-3.173-3.041
			c-0.039-1.768,1.244-3.087,3.208-3.087C95.888,4.35,97.134,5.669,97.173,7.437z M90.878,32.498v-19.61h6.098V32.49h-6.098V32.498z
			"/>
		<path fill="#026FD9" d="M119.584,12.888c-0.075,1.246-0.165,2.893-0.165,5.816v10.947c0,3.77-0.759,6.859-2.969,8.821
			c-2.161,1.842-5.087,2.4-7.973,2.4c-2.566,0-5.293-0.521-7.058-1.522l1.201-4.609c1.244,0.725,3.409,1.485,5.695,1.485
			c2.889,0,5.092-1.559,5.092-5.179v-1.28h-0.083c-1.162,1.646-3.044,2.567-5.291,2.567c-4.851,0-8.297-3.921-8.297-9.578
			c0-6.3,4.089-10.31,8.902-10.31c2.682,0,4.367,1.16,5.369,2.767h0.078l0.2-2.327L119.584,12.888L119.584,12.888z M113.325,20.867
			c0-0.402-0.038-0.804-0.116-1.123c-0.448-1.6-1.603-2.686-3.288-2.686c-2.204,0-4.01,2.009-4.01,5.572
			c0,2.928,1.443,5.211,4.01,5.211c1.561,0,2.81-1.041,3.206-2.483c0.161-0.438,0.198-1.087,0.198-1.605V20.867z"/>
		<path fill="#026FD9" d="M123.301,4.024h6.098v11.191h0.084c0.639-0.848,1.445-1.479,2.41-2.001
			c0.879-0.491,2.045-0.766,3.168-0.766c3.887,0,6.853,2.686,6.853,8.573V32.49h-6.097v-10.78c0-2.566-0.883-4.329-3.168-4.329
			c-1.604,0-2.599,1.041-3.046,2.118c-0.16,0.4-0.199,0.924-0.199,1.369V32.49h-6.101V4.024H123.301z"/>
		<path fill="#026FD9" d="M152.375,7.281v5.606h4.367v4.492h-4.367v7.095c0,2.365,0.559,3.451,2.402,3.451
			c0.768,0,1.363-0.082,1.799-0.162l0.047,4.61c-0.803,0.324-2.246,0.521-3.971,0.521c-1.965,0-3.609-0.68-4.576-1.682
			c-1.123-1.152-1.682-3.049-1.682-5.815v-8.02h-2.609v-4.492h2.609V8.632L152.375,7.281z"/>
		<path fill="#026FD9" d="M171.811,32.498l-7.097-27.029h1.929l3.924,15.244c0.924,3.478,1.727,6.729,2.248,9.258h0.121
			c0.442-2.529,1.401-5.735,2.444-9.258l4.459-15.244h1.845l4.006,15.121c0.842,3.282,1.764,6.651,2.166,9.381h0.117
			c0.602-2.93,1.442-5.852,2.446-9.305l4.44-15.197h1.97l-8.103,27.021h-1.844l-4.088-15.558c-1.047-3.963-1.682-6.654-2.084-9.178
			h-0.08c-0.441,2.522-1.162,5.17-2.404,9.146l-4.574,15.59h-1.844v0.009H171.811z"/>
		<path fill="#026FD9" d="M214.626,22.667c0,7.222-4.935,10.272-9.226,10.272c-4.967,0-8.817-3.892-8.817-9.909
			c0-6.617,4.332-10.217,9.103-10.217C211.02,12.814,214.626,16.78,214.626,22.667z M198.512,22.914c0,4.81,3.086,8.416,7.014,8.416
			c4.014,0,7.178-3.606,7.178-8.538c0-3.522-2.006-8.425-7.049-8.425C200.755,14.367,198.512,18.776,198.512,22.914z"/>
		<path fill="#026FD9" d="M218.512,19.025c0-1.925-0.08-3.935-0.158-5.78h1.764l0.08,3.89h0.078c0.844-2.4,2.846-4.319,5.494-4.319
			c0.237,0,0.518,0.032,0.766,0.074v1.845c-0.281-0.071-0.566-0.071-0.924-0.071c-2.646,0-4.533,2.271-5.057,5.365
			c-0.08,0.563-0.152,1.203-0.152,1.847V32.5h-1.891V19.025L218.512,19.025z"/>
		<path fill="#026FD9" d="M231.542,22.511h0.078c0.481-0.601,1.284-1.488,1.887-2.119l6.775-7.148h2.321l-7.77,7.981l8.852,11.267
			h-2.326l-7.854-10.099l-1.965,2.08v8.019h-1.887V4.024h1.887L231.542,22.511L231.542,22.511z"/>
		<path fill="#026FD9" d="M244.805,29.971c1.047,0.64,2.608,1.325,4.334,1.325c3.047,0,4.489-1.645,4.489-3.652
			c0-2.136-1.278-3.248-4.043-4.377c-3.168-1.199-4.896-2.918-4.896-5.246c0-2.765,2.162-5.207,5.934-5.207
			c1.764,0,3.25,0.521,4.25,1.199l-0.762,1.568c-0.639-0.491-1.889-1.169-3.805-1.169c-2.451,0-3.732,1.568-3.732,3.333
			c0,2,1.365,2.877,3.969,3.964c3.129,1.205,4.973,2.766,4.973,5.695c0,3.287-2.567,5.535-6.498,5.535
			c-1.881,0-3.606-0.567-4.893-1.363L244.805,29.971z"/>
	</g>
</g>
</svg>
