<?xml version="1.0" encoding="utf-8"?>
<!-- Generator: Adobe Illustrator 16.2.1, SVG Export Plug-In . SVG Version: 6.00 Build 0)  -->
<!DOCTYPE svg PUBLIC "-//W3C//DTD SVG 1.1//EN" "http://www.w3.org/Graphics/SVG/1.1/DTD/svg11.dtd">
<svg version="1.1" id="レイヤー_1" xmlns="http://www.w3.org/2000/svg" xmlns:xlink="http://www.w3.org/1999/xlink" x="0px"
	 y="0px" width="85.039px" height="85.039px" viewBox="255.12 378.425 85.039 85.039"
	 enable-background="new 255.12 378.425 85.039 85.039" xml:space="preserve">
<g>
	<path fill="#A7DCF7" d="M306.95,403.785c0-3.814-3.089-7.245-6.604-8.682v-7.644c0.372-0.282,0.601-0.724,0.601-1.208v-2.534
		c0-0.663-0.428-1.243-1.062-1.444c-0.158-0.051-0.309-0.075-0.459-0.075h-3.702c-0.146,0-0.297,0.024-0.456,0.075
		c-0.637,0.202-1.064,0.783-1.064,1.445v2.534c0,0.485,0.229,0.927,0.601,1.208v7.644c-3.517,1.436-6.607,4.867-6.607,8.682v28.28
		c0,1.848,1.504,3.352,3.352,3.352h12.053c1.849,0,3.352-1.504,3.352-3.352L306.95,403.785z"/>
	<g>
		<path fill="#A7DCF7" d="M291.231,406.363c0.011-0.072,0.013-0.153-0.001-0.249c-0.074-0.536-1.826-6.984-1.826-6.984
			s-1.012-3.121-2.586-4.276c-1.601-1.176-3.503-1.458-5.548-1.306c-1.544,0.114-5.909,0.762-9.668,0.465
			c-3.761-0.297-4.463-0.423-7.183-0.958c-2.718-0.536-6.307-1.703-7.071-1.708c-0.764-0.004-0.811,0.164-0.83,0.729
			c-0.018,0.565,0.512,1.563,1.148,2.576c0.637,1.013,2.022,1.984,2.022,1.984s0.067,1.606,0.778,2.696
			c0.714,1.09,2.254,1.909,2.254,1.909s0.153,1.46,1.406,2.745c2.145,2.199,5.741,1.684,5.741,1.684s0.465,1.29,1.843,1.874
			c2.502,1.061,4.187,0.225,4.187,0.225s-0.236,1.298,0.715,3.276c0.802,1.665,4.194,4.735,7.189,5.179
			c2.995,0.446,4.803-0.248,4.803-0.248c0.043-0.014,0.08-0.03,0.12-0.044c0.047-0.013,0.093-0.032,0.142-0.052
			c0.003-0.002,0.006-0.003,0.01-0.005c0.045-0.02,0.091-0.039,0.137-0.064c0.27-0.131,0.441-0.275,0.506-0.413
			c0.789-0.83,1.509-2.485,1.853-4.468C291.686,409.106,291.607,407.434,291.231,406.363z"/>
		<path fill="#A7DCF7" d="M303.92,406.363c-0.011-0.072-0.013-0.153,0.001-0.249c0.073-0.536,1.825-6.984,1.825-6.984
			s1.014-3.121,2.588-4.276c1.601-1.176,3.503-1.458,5.548-1.306c1.545,0.114,5.909,0.762,9.669,0.465
			c3.76-0.297,4.463-0.423,7.182-0.958c2.719-0.535,6.306-1.703,7.071-1.708c0.765-0.004,0.812,0.164,0.83,0.729
			c0.018,0.565-0.513,1.563-1.148,2.576c-0.636,1.013-2.021,1.984-2.021,1.984s-0.067,1.606-0.778,2.696
			c-0.714,1.09-2.254,1.909-2.254,1.909s-0.154,1.46-1.406,2.745c-2.145,2.199-5.741,1.684-5.741,1.684s-0.464,1.29-1.843,1.874
			c-2.502,1.061-4.187,0.225-4.187,0.225s0.236,1.298-0.716,3.276c-0.802,1.665-4.193,4.735-7.188,5.179
			c-2.994,0.446-4.803-0.248-4.803-0.248c-0.043-0.014-0.08-0.03-0.12-0.044c-0.047-0.013-0.093-0.032-0.142-0.052
			c-0.003-0.002-0.007-0.003-0.011-0.005c-0.045-0.02-0.091-0.039-0.137-0.064c-0.27-0.131-0.441-0.275-0.506-0.413
			c-0.789-0.83-1.511-2.485-1.854-4.468C303.465,409.106,303.544,407.434,303.92,406.363z"/>
	</g>
	<g>
		<path fill="#1780A5" d="M303.602,432.369h-12.053c-1.848,0-3.352-1.504-3.352-3.352v-28.28c0-3.815,2.331-7.247,5.848-8.682
			v-7.644c-0.372-0.282-0.602-0.724-0.602-1.208v-2.533c0-0.663,0.429-1.244,1.064-1.445c0.16-0.05,0.309-0.075,0.456-0.075h5.222
			c0.151,0,0.301,0.025,0.459,0.076c0.634,0.201,1.062,0.781,1.062,1.444v2.533c0,0.485-0.229,0.927-0.601,1.208v7.644
			c3.516,1.438,5.845,4.868,5.845,8.682l0.002,28.28C306.952,430.865,305.449,432.369,303.602,432.369z M294.965,380.48
			c-0.001,0-0.016,0-0.056,0.012c-0.064,0.021-0.137,0.085-0.137,0.178v2.533c0,0.094,0.072,0.16,0.139,0.181l0.463,0.147v9.454
			l-0.445,0.156c-3.23,1.133-5.402,4.186-5.402,7.596v28.28c0,1.113,0.908,2.021,2.021,2.021h12.053
			c1.115,0,2.021-0.908,2.021-2.021l-0.001-28.28c0-3.409-2.17-6.461-5.399-7.596l-0.444-0.156v-9.453l0.463-0.147
			c0.065-0.021,0.139-0.087,0.139-0.181v-2.533c0-0.093-0.071-0.157-0.138-0.178c-0.036-0.012-0.051-0.012-0.055-0.012
			L294.965,380.48L294.965,380.48z"/>
		<path fill="#1780A5" d="M293.809,395.773c-0.427,0.297-1.479,1.547-1.479,2.884c0,0.067,0,1.758,0,1.758l-0.007,27.389
			c0,0-0.006,0.508,0.007,0.99c0.013,0.498,0.263,0.867,1.009,0.867c1.28,0,1.696,0.012,1.696-0.582
			c0-0.053,0.006-0.668,0.006-0.668l0.006-31.611c0,0-0.006-0.901-0.006-0.96C295.035,395.303,294.194,395.505,293.809,395.773z"/>
	</g>
	<path fill="#A7DCF7" d="M304.035,423.613c0,1.1-0.881,1.998-1.958,1.998h-9.002c-1.078,0-1.959-0.898-1.959-1.998v-18.742
		c0-1.099,0.882-1.998,1.959-1.998h9.002c1.077,0,1.958,0.898,1.958,1.998V423.613z"/>
	<path fill="#1780A5" d="M302.077,426.275h-9.002c-1.447,0-2.625-1.193-2.625-2.662v-18.742c0-1.468,1.178-2.663,2.625-2.663h9.002
		c1.446,0,2.623,1.194,2.623,2.663v18.742C304.7,425.082,303.524,426.275,302.077,426.275z M293.075,403.538
		c-0.715,0-1.295,0.598-1.295,1.333v18.742c0,0.734,0.581,1.334,1.295,1.334h9.002c0.714,0,1.294-0.6,1.294-1.334v-18.742
		c0-0.735-0.579-1.333-1.294-1.333H293.075z"/>
	<g>
		<path fill="#1780A5" d="M288.604,412.938c0,0-1.808,0.694-4.803,0.248c-2.995-0.444-6.388-3.514-7.189-5.179
			c-0.952-1.979-0.715-3.277-0.715-3.277s-1.684,0.835-4.187-0.225c-1.378-0.584-1.843-1.874-1.843-1.874s-3.597,0.515-5.741-1.684
			c-1.252-1.286-1.406-2.745-1.406-2.745s-1.54-0.819-2.254-1.91c-0.711-1.09-0.778-2.696-0.778-2.696s-1.387-0.971-2.022-1.984
			c-0.637-1.013-1.166-2.01-1.148-2.576c0.02-0.565,0.066-0.734,0.83-0.729c0.765,0.004,4.353,1.172,7.071,1.707
			c2.719,0.536,3.422,0.662,7.183,0.958c3.76,0.297,8.124-0.351,9.668-0.465c2.045-0.152,3.947,0.129,5.548,1.306
			c1.574,1.156,2.586,4.276,2.586,4.276s0.05,0.181,0.132,0.485c0.054,0.2-0.655,2.069-0.713,1.864
			c-0.638-2.243-1.593-4.949-2.693-5.696c-1.603-1.087-2.129-1.194-4.821-1.027c-2.693,0.169-5.495,0.78-9.592,0.542
			c-4.097-0.237-5.638-0.75-7.716-1.038c-2.078-0.288-5.069-1.497-5.575-1.331c-0.505,0.165-0.017,0.807,0.498,1.363
			c1.261,1.368,3.33,2.722,7.061,3.39c4.324,0.773,9.953,0.408,11.041,0.154c1.087-0.254,1.423-0.007,0.764,0.31
			c-0.66,0.318-2.975,1.176-7.408,0.998c-4.436-0.178-8.526-1.333-9.183-1.627c-0.655-0.295-0.217,0.58,0.59,1.334
			c0.806,0.754,2.524,2.278,6.577,2.224c4.053-0.053,7.74-0.446,8.446-0.625c0.704-0.18,0.595,0.264-0.187,0.519
			c-0.781,0.255-3.633,1.34-6.049,1.418c-2.417,0.078-4.602-0.225-5.519-0.384c-0.917-0.157-1.194,0.238-0.265,0.902
			c0.929,0.662,2.438,1.542,4.962,1.48c2.523-0.062,4.729-0.189,6.29-0.683c1.521-0.481,2.481-0.812,1.361-0.039
			c-1.121,0.773-2.919,1.396-4.186,1.675c-1.322,0.291-2.722,0.075-0.817,1.233c1.639,0.995,2.95,0.46,4.068-0.007
			c1.12-0.468,1.12-0.468,1.809-0.847c0.858-0.469,0.486,0.707-0.419,1.207c-0.904,0.499-0.075,3.51,0.999,4.608
			c2.676,2.737,5.354,3.622,8.219,3.324C289.963,411.519,290.121,412.443,288.604,412.938z"/>
		<path fill="#1780A5" d="M306.547,412.938c0,0,1.809,0.694,4.803,0.248c2.995-0.444,6.388-3.514,7.188-5.179
			c0.952-1.979,0.716-3.277,0.716-3.277s1.685,0.835,4.187-0.225c1.379-0.584,1.843-1.874,1.843-1.874s3.598,0.515,5.741-1.684
			c1.252-1.286,1.406-2.745,1.406-2.745s1.54-0.819,2.254-1.91c0.711-1.09,0.778-2.696,0.778-2.696s1.387-0.971,2.021-1.984
			c0.637-1.013,1.167-2.01,1.148-2.576c-0.02-0.565-0.065-0.734-0.83-0.729c-0.767,0.004-4.354,1.172-7.071,1.707
			c-2.719,0.536-3.422,0.662-7.182,0.958c-3.761,0.297-8.124-0.351-9.669-0.465c-2.045-0.152-3.947,0.129-5.549,1.306
			c-1.573,1.156-2.587,4.276-2.587,4.276s-0.049,0.181-0.131,0.485c-0.055,0.2,0.654,2.069,0.712,1.864
			c0.64-2.243,1.594-4.949,2.694-5.696c1.602-1.087,2.129-1.194,4.821-1.027c2.691,0.169,5.495,0.78,9.592,0.542
			c4.097-0.238,5.639-0.75,7.717-1.038c2.078-0.288,5.068-1.497,5.574-1.331c0.506,0.165,0.017,0.807-0.497,1.363
			c-1.261,1.368-3.329,2.722-7.061,3.39c-4.324,0.773-9.953,0.408-11.041,0.154c-1.089-0.254-1.424-0.007-0.765,0.31
			c0.659,0.318,2.975,1.176,7.408,0.998c4.435-0.178,8.526-1.333,9.182-1.627c0.656-0.295,0.219,0.58-0.589,1.334
			c-0.807,0.754-2.524,2.278-6.578,2.224c-4.053-0.053-7.739-0.446-8.445-0.625c-0.704-0.18-0.596,0.264,0.187,0.519
			c0.781,0.255,3.633,1.34,6.049,1.418c2.418,0.078,4.604-0.225,5.521-0.384c0.916-0.157,1.192,0.238,0.265,0.902
			c-0.929,0.662-2.438,1.542-4.962,1.48c-2.522-0.062-4.729-0.189-6.289-0.683c-1.521-0.481-2.481-0.812-1.362-0.039
			c1.121,0.773,2.92,1.396,4.187,1.675c1.322,0.291,2.723,0.075,0.817,1.233c-1.639,0.995-2.949,0.46-4.068-0.007
			c-1.119-0.468-1.119-0.468-1.809-0.847c-0.858-0.469-0.486,0.707,0.419,1.207c0.904,0.499,0.074,3.51-0.998,4.608
			c-2.677,2.737-5.354,3.622-8.22,3.324C305.188,411.519,305.03,412.443,306.547,412.938z"/>
	</g>
	
		<ellipse transform="matrix(-0.0274 -0.9996 0.9996 -0.0274 -133.6833 749.0179)" fill="#1780A5" cx="297.558" cy="439.546" rx="1.981" ry="7.852"/>
</g>
<g>
	<path fill="#1780A5" d="M255.056,460.056v-12.02h3.174l2.497,4.408c0.713,1.264,1.426,2.76,1.96,4.115h0.055
		c-0.179-1.588-0.232-3.207-0.232-5.01v-3.516h2.497v12.018h-2.854l-2.567-4.635c-0.713-1.285-1.5-2.836-2.087-4.246l-0.053,0.021
		c0.07,1.588,0.107,3.281,0.107,5.242v3.617h-2.498L255.056,460.056L255.056,460.056z"/>
	<path fill="#1780A5" d="M269.675,448.912c0,0.75-0.571,1.352-1.46,1.352c-0.857,0-1.428-0.602-1.411-1.352
		c-0.018-0.787,0.554-1.373,1.427-1.373S269.657,448.125,269.675,448.912z M266.875,460.056v-8.721h2.712v8.719h-2.712V460.056z"/>
	<path fill="#1780A5" d="M279.642,451.335c-0.034,0.555-0.073,1.287-0.073,2.586v4.871c0,1.674-0.337,3.051-1.319,3.922
		c-0.961,0.82-2.263,1.068-3.546,1.068c-1.143,0-2.354-0.232-3.14-0.678l0.534-2.051c0.554,0.322,1.517,0.66,2.534,0.66
		c1.284,0,2.264-0.691,2.264-2.303v-0.568h-0.037c-0.517,0.73-1.354,1.143-2.353,1.143c-2.158,0-3.691-1.744-3.691-4.262
		c0-2.801,1.819-4.584,3.959-4.584c1.193,0,1.942,0.518,2.389,1.23h0.034l0.09-1.035H279.642L279.642,451.335z M276.858,454.884
		c0-0.178-0.018-0.355-0.052-0.5c-0.199-0.711-0.712-1.191-1.462-1.191c-0.979,0-1.783,0.893-1.783,2.477
		c0,1.303,0.643,2.318,1.783,2.318c0.694,0,1.25-0.463,1.427-1.105c0.071-0.193,0.088-0.48,0.088-0.713L276.858,454.884
		L276.858,454.884z"/>
	<path fill="#1780A5" d="M281.295,447.394h2.712v4.979h0.037c0.284-0.379,0.642-0.658,1.072-0.891
		c0.39-0.219,0.908-0.342,1.407-0.342c1.729,0,3.048,1.195,3.048,3.812v5.102h-2.711v-4.795c0-1.143-0.392-1.926-1.408-1.926
		c-0.714,0-1.156,0.463-1.354,0.943c-0.072,0.178-0.089,0.408-0.089,0.607v5.168h-2.713L281.295,447.394L281.295,447.394z"/>
	<path fill="#1780A5" d="M294.225,448.841v2.494h1.941v1.998h-1.941v3.154c0,1.053,0.248,1.535,1.068,1.535
		c0.341,0,0.605-0.035,0.801-0.072l0.021,2.051c-0.356,0.145-0.998,0.232-1.766,0.232c-0.874,0-1.604-0.303-2.035-0.748
		c-0.5-0.514-0.748-1.355-0.748-2.586v-3.566h-1.161v-1.998h1.161v-1.893L294.225,448.841z"/>
	<path fill="#1780A5" d="M302.867,460.056l-3.154-12.02h0.855l1.746,6.779c0.41,1.547,0.768,2.99,1,4.117h0.053
		c0.198-1.127,0.625-2.551,1.089-4.117l1.982-6.779h0.819l1.781,6.725c0.374,1.459,0.783,2.957,0.963,4.172h0.053
		c0.269-1.303,0.643-2.604,1.089-4.139l1.976-6.758h0.876l-3.604,12.018h-0.82l-1.816-6.92c-0.467-1.762-0.749-2.959-0.929-4.082
		h-0.034c-0.196,1.123-0.518,2.301-1.069,4.068l-2.034,6.934h-0.82L302.867,460.056L302.867,460.056z"/>
	<path fill="#1780A5" d="M321.909,455.685c0,3.213-2.193,4.568-4.103,4.568c-2.209,0-3.922-1.729-3.922-4.406
		c0-2.943,1.927-4.545,4.048-4.545C320.306,451.302,321.909,453.066,321.909,455.685z M314.741,455.794
		c0,2.139,1.373,3.744,3.12,3.744c1.785,0,3.192-1.605,3.192-3.799c0-1.566-0.893-3.746-3.135-3.746
		C315.74,451.994,314.741,453.955,314.741,455.794z"/>
	<path fill="#1780A5" d="M323.638,454.066c0-0.857-0.035-1.752-0.07-2.572h0.784l0.035,1.729h0.035
		c0.375-1.066,1.266-1.92,2.442-1.92c0.106,0,0.23,0.016,0.341,0.033v0.82c-0.125-0.033-0.252-0.033-0.41-0.033
		c-1.178,0-2.017,1.012-2.248,2.387c-0.036,0.252-0.068,0.535-0.068,0.82v4.727h-0.841V454.066L323.638,454.066z"/>
	<path fill="#1780A5" d="M329.434,455.615h0.034c0.215-0.268,0.57-0.662,0.839-0.941l3.014-3.18h1.033l-3.456,3.549l3.938,5.012
		H333.8l-3.493-4.492l-0.873,0.928v3.564h-0.84v-12.66h0.84V455.615L329.434,455.615z"/>
	<path fill="#1780A5" d="M335.33,458.933c0.467,0.285,1.16,0.59,1.929,0.59c1.354,0,1.996-0.73,1.996-1.625
		c0-0.949-0.568-1.443-1.799-1.945c-1.408-0.533-2.177-1.299-2.177-2.334c0-1.229,0.961-2.314,2.64-2.314
		c0.783,0,1.443,0.23,1.89,0.533l-0.339,0.697c-0.284-0.221-0.84-0.521-1.691-0.521c-1.09,0-1.66,0.697-1.66,1.482
		c0,0.891,0.606,1.279,1.766,1.764c1.392,0.535,2.212,1.229,2.212,2.533c0,1.461-1.144,2.461-2.892,2.461
		c-0.836,0-1.604-0.252-2.176-0.607L335.33,458.933z"/>
</g>
</svg>
